:SAMPLES-PER-SECOND 30
:FULLY-SPECIFIED
:DEGREES
86
root  52.3328 39.2818 -8.40608 -11.6727 72.6912 -15.6656
RightUpLeg  -11.9884 1.20723 -1.79179
RightLeg  40.734 5.68616 -4.09859
RightFoot  1.47782 -0.528503 4.10975
RightToes  1.74622e-010 -3.18055e-015 8.94531e-016
Spine  0.637192 -3.41637 0.0966669
Spine1  15.6043 -3.95438 -2.25137
HEad  -8.91491 21.9517 -8.64676
LeftShoulder1  0 0 -2.47967e-037
LeftArm  -9.45823 28.5687 -80.4401
LeftForeArm  -9.72101 -5.83991 -6.50283
LeftHand  0.779942 5.26793 -3.11255
RightShoulder  -2.48481e-017 0 -8.08114e-019
RightArm  29.6948 -45.7572 86.5086
RightForeArm  -55.9873 20.9482 -12.6774
RightHand  1.24312 -11.1044 -3.7144
LeftUpLeg  -10.0958 -4.60975 -0.950658
LeftLeg  20.7079 -14.0834 -1.19439
LeftFoot  -10.7913 -0.126006 4.12953
LeftToes  -1.45516e-011 5.53925e-011 1.30052e-011
87
root  53.4167 39.4515 -8.21144 -16.1403 76.5144 -20.7668
RightUpLeg  -15.4833 1.61527 -0.217968
RightLeg  39.7887 5.15883 -4.41427
RightFoot  -0.390564 -0.456141 4.08444
RightToes  1.74622e-010 -3.18055e-015 8.94531e-016
Spine  -0.0730286 -3.9014 -1.46464
Spine1  15.9461 -4.85747 -0.496286
HEad  -8.59112 19.7683 -7.35605
LeftShoulder1  0 0 -2.47967e-037
LeftArm  2.00365 28.3279 -81.7278
LeftForeArm  -18.2939 -14.2762 -1.99955
LeftHand  0.728742 4.62425 -3.91506
RightShoulder  -2.48481e-017 0 -8.08114e-019
RightArm  31.8387 -47.8531 86.1668
RightForeArm  -57.0384 21.0123 -12.2932
RightHand  1.2348 -11.2427 -3.08894
LeftUpLeg  -8.3138 -3.05637 -0.723259
LeftLeg  19.0725 -19.2906 -2.358
LeftFoot  -9.89716 -0.161272 4.31082
LeftToes  -1.45516e-011 5.53925e-011 1.30052e-011
88
root  54.5233 39.5893 -8.02089 -23.6577 79.7622 -28.584
RightUpLeg  -18.8009 2.05981 1.11807
RightLeg  37.4413 4.68469 -4.39634
RightFoot  -0.848246 -0.428375 3.98638
RightToes  1.74622e-010 -3.18055e-015 8.94531e-016
Spine  -0.175972 -4.34094 -2.55713
Spine1  16.0815 -5.54694 0.737666
HEad  -8.72282 17.8521 -6.00887
LeftShoulder1  0 0 -2.47967e-037
LeftArm  20.062 27.9028 -82.6494
LeftForeArm  -36.1734 -22.6423 8.67273
LeftHand  0.729385 4.56958 -4.14463
RightShoulder  -2.48481e-017 0 -8.08114e-019
RightArm  34.7603 -50.2801 86.693
RightForeArm  -58.8587 21.1794 -12.7797
RightHand  1.21906 -11.3952 -2.29574
LeftUpLeg  -6.30233 -1.10058 -0.179723
LeftLeg  17.7331 -24.3545 -3.3746
LeftFoot  -9.10989 -0.202855 4.68857
LeftToes  -1.45516e-011 5.53925e-011 1.30052e-011
89
root  55.6644 39.6967 -7.84663 -36.0652 82.2963 -40.9994
RightUpLeg  -21.5798 2.28415 2.24791
RightLeg  33.4718 4.93583 -3.52619
RightFoot  0.522854 -0.470259 3.92708
RightToes  1.74622e-010 -3.18055e-015 8.94531e-016
Spine  -0.0182098 -4.73043 -3.37308
Spine1  16.2757 -6.15916 1.86223
HEad  -9.12581 16.3825 -4.97366
LeftShoulder1  0 0 -2.47967e-037
LeftArm  27.0866 26.8334 -82.5223
LeftForeArm  -43.9633 -27.3532 18.3828
LeftHand  0.74232 4.86337 -3.41989
RightShoulder  -2.48481e-017 0 -8.08114e-019
RightArm  37.0706 -52.5404 87.5006
RightForeArm  -60.6915 21.339 -13.5437
RightHand  1.14618 -11.2857 -0.897317
LeftUpLeg  -3.87571 0.720671 0.606961
LeftLeg  16.1915 -29.0957 -3.98419
LeftFoot  -8.38829 -0.247652 5.09182
LeftToes  -1.45516e-011 5.53925e-011 1.30052e-011
90
root  56.827 39.7215 -7.66994 -54.3267 84.1247 -59.0697
RightUpLeg  -23.699 2.12202 3.07106
RightLeg  28.0519 6.28305 -1.93698
RightFoot  2.18632 -0.592606 4.39774
RightToes  1.74622e-010 -3.18055e-015 8.94531e-016
Spine  0.384601 -5.0369 -4.46934
Spine1  16.31 -6.78316 3.30215
HEad  -9.4713 15.1646 -4.19938
LeftShoulder1  0 0 -2.47967e-037
LeftArm  19.4712 24.778 -81.3746
LeftForeArm  -35.7645 -32.9062 20.4214
LeftHand  0.768713 5.22779 -2.79201
RightShoulder  -2.48481e-017 0 -8.08114e-019
RightArm  38.1328 -54.43 88.2533
RightForeArm  -61.5878 21.4142 -13.9065
RightHand  1.04139 -10.8656 0.627307
LeftUpLeg  -1.25569 2.05615 1.46565
LeftLeg  14.7346 -33.2901 -4.32759
LeftFoot  -7.74118 -0.281345 5.22172
LeftToes  -1.45516e-011 5.53925e-011 1.30052e-011
91
root  58.0292 39.6231 -7.48629 -77.7094 85.2107 -82.2186
RightUpLeg  -25.2224 1.46714 3.63484
RightLeg  21.311 8.5929 -0.284709
RightFoot  3.87915 -0.875948 5.82565
RightToes  1.74622e-010 -3.18055e-015 8.94531e-016
Spine  0.993633 -5.21234 -5.69578
Spine1  15.9218 -7.2489 4.71646
HEad  -9.69877 13.9209 -3.40744
LeftShoulder1  0 0 -2.47967e-037
LeftArm  15.8185 22.2765 -80.2753
LeftForeArm  -32.7211 -37.8746 22.8885
LeftHand  0.809957 5.62853 -2.54403
RightShoulder  -2.48481e-017 0 -8.08114e-019
RightArm  37.6717 -56.1481 89.0928
RightForeArm  -61.0629 21.3969 -13.8961
RightHand  0.975802 -10.4378 1.33927
LeftUpLeg  1.2706 2.90895 2.24604
LeftLeg  13.8982 -36.4517 -4.73969
LeftFoot  -7.65986 -0.310955 5.75386
LeftToes  -1.45516e-011 5.53925e-011 1.30052e-011
